<svg width="173" height="32" viewBox="0 0 173 32" fill="none" xmlns="http://www.w3.org/2000/svg">
<rect x="5.20605" y="5.88232" width="13.6471" height="1.88235" fill="#222222"/>
<path fill-rule="evenodd" clip-rule="evenodd" d="M17.9119 9.64697H11.0884V20.4705V22.5882H12.9707V20.4705H17.7632L21.7966 26.4971L24.0296 26.4971L19.7896 20.1194C21.7202 19.3676 23.0884 17.4906 23.0884 15.294V14.8234C23.0884 11.9646 20.7708 9.64697 17.9119 9.64697ZM12.9707 18.5882V11.5293H17.9119C19.7312 11.5293 21.206 13.0042 21.206 14.8234V15.294C21.206 17.1133 19.7312 18.5882 17.9119 18.5882H12.9707Z" fill="#007EC6"/>
<path fill-rule="evenodd" clip-rule="evenodd" d="M26.6176 0H0.5V1.88235V6.35294V7.76471V30.1176V32H5.67647H6.61765H30.6176H32.2647H32.5L32.5 27.0588L32.5 25.8824V1.88235V0H27.7941H26.6176ZM6.61765 30.1176H30.6176V27.0588V25.8824L30.6176 1.88235L27.7941 1.88235H26.6176L2.38235 1.88235L2.38235 6.35294V7.76471L2.38235 30.1176H5.67647H6.61765Z" fill="#222222"/>
<path d="M43.5952 13.3993C44.571 11.8813 46.2877 11.1224 48.7453 11.1224V14.348C48.4562 14.2937 48.1942 14.2666 47.9593 14.2666C46.6401 14.2666 45.6101 14.6552 44.8692 15.4322C44.1283 16.1912 43.7579 17.2935 43.7579 18.7391V25.7595H40.3696V11.285H43.5952V13.3993Z" fill="#222222"/>
<path d="M65.7657 11.285V25.7595H62.5401V23.9163C61.998 24.5669 61.3204 25.0729 60.5072 25.4343C59.694 25.7776 58.8176 25.9493 57.8779 25.9493C55.9444 25.9493 54.4174 25.4162 53.297 24.35C52.1947 23.2658 51.6436 21.6665 51.6436 19.5523V11.285H55.0318V19.0915C55.0318 20.3926 55.3209 21.3684 55.8992 22.0189C56.4955 22.6514 57.3358 22.9676 58.42 22.9676C59.6308 22.9676 60.5885 22.5972 61.2933 21.8563C62.0161 21.0973 62.3775 20.0131 62.3775 18.6036V11.285H65.7657Z" fill="#222222"/>
<path d="M70.202 5.64697H73.5902V25.7595H70.202V5.64697Z" fill="#222222"/>
<path d="M91.6444 18.6036C91.6444 18.8385 91.6264 19.1728 91.5902 19.6065H80.2328C80.4316 20.6727 80.9466 21.522 81.7779 22.1545C82.6272 22.7689 83.6753 23.0761 84.9222 23.0761C86.5124 23.0761 87.8225 22.552 88.8525 21.5039L90.6686 23.5911C90.0181 24.3681 89.1959 24.9554 88.202 25.3529C87.2081 25.7505 86.0877 25.9493 84.8409 25.9493C83.2506 25.9493 81.8502 25.633 80.6394 25.0006C79.4287 24.3681 78.489 23.4917 77.8204 22.3713C77.1699 21.2329 76.8446 19.9498 76.8446 18.5223C76.8446 17.1128 77.1609 15.8478 77.7933 14.7274C78.4439 13.589 79.3384 12.7035 80.4768 12.0711C81.6152 11.4386 82.8983 11.1224 84.3258 11.1224C85.7353 11.1224 86.9912 11.4386 88.0936 12.0711C89.2139 12.6855 90.0813 13.5619 90.6957 14.7003C91.3282 15.8207 91.6444 17.1218 91.6444 18.6036ZM84.3258 13.8329C83.2416 13.8329 82.32 14.1582 81.561 14.8088C80.8201 15.4412 80.3684 16.2905 80.2057 17.3567H88.4188C88.2743 16.3086 87.8315 15.4593 87.0906 14.8088C86.3497 14.1582 85.4281 13.8329 84.3258 13.8329Z" fill="#222222"/>
<path d="M95.9833 25.9493C95.3689 25.9493 94.8448 25.7415 94.4111 25.3258C93.9774 24.8921 93.7606 24.35 93.7606 23.6995C93.7606 23.0309 93.9684 22.4888 94.384 22.0731C94.8177 21.6575 95.3508 21.4497 95.9833 21.4497C96.6157 21.4497 97.1398 21.6575 97.5554 22.0731C97.9891 22.4888 98.206 23.0309 98.206 23.6995C98.206 24.35 97.9891 24.8921 97.5554 25.3258C97.1217 25.7415 96.5977 25.9493 95.9833 25.9493Z" fill="#222222"/>
<path d="M110.218 24.9735C109.82 25.2987 109.332 25.5427 108.754 25.7053C108.194 25.868 107.597 25.9493 106.965 25.9493C105.375 25.9493 104.146 25.5337 103.279 24.7024C102.411 23.8712 101.977 22.6604 101.977 21.0702V14.104H99.5922V11.3934H101.977V8.0865H105.366V11.3934H109.242V14.104H105.366V20.9889C105.366 21.6937 105.537 22.2358 105.881 22.6153C106.224 22.9767 106.721 23.1574 107.372 23.1574C108.131 23.1574 108.763 22.9586 109.269 22.561L110.218 24.9735Z" fill="#222222"/>
<path d="M116.231 13.3993C117.206 11.8813 118.923 11.1224 121.381 11.1224V14.348C121.092 14.2937 120.829 14.2666 120.595 14.2666C119.275 14.2666 118.245 14.6552 117.504 15.4322C116.764 16.1912 116.393 17.2935 116.393 18.7391V25.7595H113.005V11.285H116.231V13.3993Z" fill="#222222"/>
<path d="M129.705 11.1224C131.837 11.1224 133.464 11.6374 134.584 12.6674C135.723 13.6793 136.292 15.2153 136.292 17.2754V25.7595H133.093V23.9977C132.678 24.6301 132.081 25.118 131.304 25.4614C130.545 25.7866 129.624 25.9493 128.54 25.9493C127.455 25.9493 126.507 25.7686 125.693 25.4072C124.88 25.0277 124.248 24.5127 123.796 23.8621C123.362 23.1935 123.145 22.4436 123.145 21.6123C123.145 20.3113 123.624 19.2722 124.582 18.4952C125.558 17.7001 127.085 17.3025 129.163 17.3025H132.904V17.0857C132.904 16.0737 132.596 15.2967 131.982 14.7545C131.386 14.2124 130.491 13.9414 129.299 13.9414C128.485 13.9414 127.681 14.0679 126.886 14.3209C126.109 14.5738 125.449 14.9262 124.907 15.378L123.579 12.9113C124.338 12.3331 125.251 11.8904 126.317 11.5832C127.383 11.276 128.512 11.1224 129.705 11.1224ZM129.244 23.4826C130.094 23.4826 130.844 23.2929 131.494 22.9134C132.163 22.5159 132.633 21.9557 132.904 21.2329V19.5523H129.407C127.455 19.5523 126.48 20.1938 126.48 21.4768C126.48 22.0912 126.723 22.5791 127.211 22.9405C127.699 23.3019 128.377 23.4826 129.244 23.4826Z" fill="#222222"/>
<path d="M154.949 5.64697V25.7595H151.696V23.8892C151.136 24.5759 150.44 25.0909 149.609 25.4343C148.796 25.7776 147.892 25.9493 146.898 25.9493C145.507 25.9493 144.251 25.6421 143.131 25.0277C142.028 24.4133 141.161 23.5459 140.529 22.4255C139.896 21.2871 139.58 19.986 139.58 18.5223C139.58 17.0585 139.896 15.7665 140.529 14.6461C141.161 13.5257 142.028 12.6584 143.131 12.044C144.251 11.4296 145.507 11.1224 146.898 11.1224C147.856 11.1224 148.733 11.285 149.528 11.6103C150.323 11.9355 151.001 12.4234 151.561 13.074V5.64697H154.949ZM147.305 23.0489C148.118 23.0489 148.85 22.8682 149.501 22.5068C150.151 22.1273 150.666 21.5943 151.046 20.9076C151.425 20.2209 151.615 19.4258 151.615 18.5223C151.615 17.6187 151.425 16.8236 151.046 16.1369C150.666 15.4503 150.151 14.9262 149.501 14.5648C148.85 14.1853 148.118 13.9956 147.305 13.9956C146.492 13.9956 145.76 14.1853 145.11 14.5648C144.459 14.9262 143.944 15.4503 143.564 16.1369C143.185 16.8236 142.995 17.6187 142.995 18.5223C142.995 19.4258 143.185 20.2209 143.564 20.9076C143.944 21.5943 144.459 22.1273 145.11 22.5068C145.76 22.8682 146.492 23.0489 147.305 23.0489Z" fill="#222222"/>
<path d="M172.989 18.6036C172.989 18.8385 172.97 19.1728 172.934 19.6065H161.577C161.776 20.6727 162.291 21.522 163.122 22.1545C163.971 22.7689 165.019 23.0761 166.266 23.0761C167.856 23.0761 169.167 22.552 170.197 21.5039L172.013 23.5911C171.362 24.3681 170.54 24.9554 169.546 25.3529C168.552 25.7505 167.432 25.9493 166.185 25.9493C164.595 25.9493 163.194 25.633 161.984 25.0006C160.773 24.3681 159.833 23.4917 159.165 22.3713C158.514 21.2329 158.189 19.9498 158.189 18.5223C158.189 17.1128 158.505 15.8478 159.137 14.7274C159.788 13.589 160.682 12.7035 161.821 12.0711C162.959 11.4386 164.242 11.1224 165.67 11.1224C167.079 11.1224 168.335 11.4386 169.438 12.0711C170.558 12.6855 171.425 13.5619 172.04 14.7003C172.672 15.8207 172.989 17.1218 172.989 18.6036ZM165.67 13.8329C164.586 13.8329 163.664 14.1582 162.905 14.8088C162.164 15.4412 161.712 16.2905 161.55 17.3567H169.763C169.618 16.3086 169.176 15.4593 168.435 14.8088C167.694 14.1582 166.772 13.8329 165.67 13.8329Z" fill="#222222"/>
</svg>
