<svg width="24" height="24" viewBox="0 0 24 24" fill="none" xmlns="http://www.w3.org/2000/svg">
<path fill-rule="evenodd" clip-rule="evenodd" d="M13.6352 20.7272V12.766H16.3585L16.7671 9.66243H13.6352V7.68126C13.6352 6.78299 13.8885 6.17083 15.2032 6.17083L16.8774 6.17015V3.39421C16.5878 3.35731 15.594 3.27271 14.4373 3.27271C12.0219 3.27271 10.3683 4.71878 10.3683 7.37389V9.66243H7.63672V12.766H10.3683V20.7272H13.6352Z" fill="#BBC3CF"/>
<mask id="mask0_343_2604" style="mask-type:luminance" maskUnits="userSpaceOnUse" x="7" y="3" width="10" height="18">
<path fill-rule="evenodd" clip-rule="evenodd" d="M13.6352 20.7272V12.766H16.3585L16.7671 9.66243H13.6352V7.68126C13.6352 6.78299 13.8885 6.17083 15.2032 6.17083L16.8774 6.17015V3.39421C16.5878 3.35731 15.594 3.27271 14.4373 3.27271C12.0219 3.27271 10.3683 4.71878 10.3683 7.37389V9.66243H7.63672V12.766H10.3683V20.7272H13.6352Z" fill="white"/>
</mask>
<g mask="url(#mask0_343_2604)">
</g>
</svg>
