<svg width="24" height="24" viewBox="0 0 24 24" fill="none" xmlns="http://www.w3.org/2000/svg">
<path fill-rule="evenodd" clip-rule="evenodd" d="M7.60045 2.18188H16.399C19.3871 2.18188 21.8181 4.61288 21.818 7.60081V16.3993C21.818 19.3873 19.3871 21.8182 16.399 21.8182H7.60045C4.61252 21.8182 2.18164 19.3874 2.18164 16.3993V7.60081C2.18164 4.61288 4.61252 2.18188 7.60045 2.18188ZM16.3991 20.076C18.4265 20.076 20.0759 18.4267 20.0759 16.3993H20.0758V7.60081C20.0758 5.57355 18.4263 3.92412 16.399 3.92412H7.60045C5.57319 3.92412 3.92387 5.57355 3.92387 7.60081V16.3993C3.92387 18.4267 5.57319 20.0761 7.60045 20.076H16.3991ZM6.85696 12.0002C6.85696 9.16431 9.16401 6.85721 11.9998 6.85721C14.8356 6.85721 17.1427 9.16431 17.1427 12.0002C17.1427 14.8359 14.8356 17.1429 11.9998 17.1429C9.16401 17.1429 6.85696 14.8359 6.85696 12.0002ZM8.6278 12.0001C8.6278 13.8594 10.1406 15.3719 11.9998 15.3719C13.8591 15.3719 15.3718 13.8594 15.3718 12.0001C15.3718 10.1406 13.8592 8.62797 11.9998 8.62797C10.1404 8.62797 8.6278 10.1406 8.6278 12.0001Z" fill="#BBC3CF"/>
<mask id="mask0_343_2606" style="mask-type:luminance" maskUnits="userSpaceOnUse" x="2" y="2" width="20" height="20">
<path fill-rule="evenodd" clip-rule="evenodd" d="M7.60045 2.18188H16.399C19.3871 2.18188 21.8181 4.61288 21.818 7.60081V16.3993C21.818 19.3873 19.3871 21.8182 16.399 21.8182H7.60045C4.61252 21.8182 2.18164 19.3874 2.18164 16.3993V7.60081C2.18164 4.61288 4.61252 2.18188 7.60045 2.18188ZM16.3991 20.076C18.4265 20.076 20.0759 18.4267 20.0759 16.3993H20.0758V7.60081C20.0758 5.57355 18.4263 3.92412 16.399 3.92412H7.60045C5.57319 3.92412 3.92387 5.57355 3.92387 7.60081V16.3993C3.92387 18.4267 5.57319 20.0761 7.60045 20.076H16.3991ZM6.85696 12.0002C6.85696 9.16431 9.16401 6.85721 11.9998 6.85721C14.8356 6.85721 17.1427 9.16431 17.1427 12.0002C17.1427 14.8359 14.8356 17.1429 11.9998 17.1429C9.16401 17.1429 6.85696 14.8359 6.85696 12.0002ZM8.6278 12.0001C8.6278 13.8594 10.1406 15.3719 11.9998 15.3719C13.8591 15.3719 15.3718 13.8594 15.3718 12.0001C15.3718 10.1406 13.8592 8.62797 11.9998 8.62797C10.1404 8.62797 8.6278 10.1406 8.6278 12.0001Z" fill="white"/>
</mask>
<g mask="url(#mask0_343_2606)">
</g>
</svg>
