<svg width="24" height="24" viewBox="0 0 24 24" fill="none" xmlns="http://www.w3.org/2000/svg">
<path fill-rule="evenodd" clip-rule="evenodd" d="M21.8179 6.14586C21.1353 6.44831 20.4029 6.65343 19.6334 6.74501C20.4191 6.2745 21.0206 5.52819 21.3056 4.64165C20.5686 5.07737 19.7551 5.39377 18.8882 5.56528C18.1941 4.82477 17.2067 4.36353 16.1116 4.36353C14.0105 4.36353 12.307 6.06707 12.307 8.16695C12.307 8.46477 12.3406 8.75565 12.4055 9.0338C9.2441 8.87501 6.44079 7.36037 4.56458 5.05883C4.23661 5.61974 4.05004 6.27331 4.05004 6.97098C4.05004 8.29095 4.72219 9.45562 5.74201 10.137C5.11852 10.1162 4.53213 9.94465 4.01876 9.65956V9.70707C4.01876 11.5497 5.33061 13.0875 7.07007 13.4375C6.75137 13.5233 6.41531 13.5708 6.06764 13.5708C5.82198 13.5708 5.5844 13.5464 5.35146 13.5001C5.83586 15.0124 7.24043 16.1122 8.90458 16.1423C7.60316 17.1621 5.96219 17.7682 4.17985 17.7682C3.87276 17.7682 3.57028 17.7497 3.27246 17.7161C4.95631 18.7973 6.95537 19.4277 9.10392 19.4277C16.1023 19.4277 19.9278 13.631 19.9278 8.60386L19.915 8.11134C20.6625 7.57822 21.3091 6.9084 21.8179 6.14586Z" fill="#BBC3CF"/>
<mask id="mask0_343_2605" style="mask-type:luminance" maskUnits="userSpaceOnUse" x="3" y="4" width="19" height="16">
<path fill-rule="evenodd" clip-rule="evenodd" d="M21.8179 6.14586C21.1353 6.44831 20.4029 6.65343 19.6334 6.74501C20.4191 6.2745 21.0206 5.52819 21.3056 4.64165C20.5686 5.07737 19.7551 5.39377 18.8882 5.56528C18.1941 4.82477 17.2067 4.36353 16.1116 4.36353C14.0105 4.36353 12.307 6.06707 12.307 8.16695C12.307 8.46477 12.3406 8.75565 12.4055 9.0338C9.2441 8.87501 6.44079 7.36037 4.56458 5.05883C4.23661 5.61974 4.05004 6.27331 4.05004 6.97098C4.05004 8.29095 4.72219 9.45562 5.74201 10.137C5.11852 10.1162 4.53213 9.94465 4.01876 9.65956V9.70707C4.01876 11.5497 5.33061 13.0875 7.07007 13.4375C6.75137 13.5233 6.41531 13.5708 6.06764 13.5708C5.82198 13.5708 5.5844 13.5464 5.35146 13.5001C5.83586 15.0124 7.24043 16.1122 8.90458 16.1423C7.60316 17.1621 5.96219 17.7682 4.17985 17.7682C3.87276 17.7682 3.57028 17.7497 3.27246 17.7161C4.95631 18.7973 6.95537 19.4277 9.10392 19.4277C16.1023 19.4277 19.9278 13.631 19.9278 8.60386L19.915 8.11134C20.6625 7.57822 21.3091 6.9084 21.8179 6.14586Z" fill="white"/>
</mask>
<g mask="url(#mask0_343_2605)">
</g>
</svg>
