<svg width="64" height="64" viewBox="0 0 64 64" fill="none" xmlns="http://www.w3.org/2000/svg">
<rect x="9.41162" y="11.7646" width="27.2941" height="3.76471" fill="#222222"/>
<path fill-rule="evenodd" clip-rule="evenodd" d="M34.8233 19.2939H21.1763V40.941V45.1763H24.941V40.941H34.5259L42.5928 52.9942L47.0586 52.9942L38.5787 40.2389C42.44 38.7353 45.1763 34.9812 45.1763 30.5881V29.6469C45.1763 23.9291 40.5411 19.2939 34.8233 19.2939ZM24.941 37.1763V23.0587H34.8233C38.4619 23.0587 41.4116 26.0083 41.4116 29.6469V30.5881C41.4116 34.2266 38.4619 37.1763 34.8233 37.1763H24.941Z" fill="#007EC6"/>
<path fill-rule="evenodd" clip-rule="evenodd" d="M52.2353 0H0V3.76471V15.5294V60.2353V64H10.3529H12.2353H60.2353H63.5294H64L64 54.1176L64 51.7647V3.76471V0H54.5882H52.2353ZM12.2353 60.2353H60.2353V54.1176V51.7647L60.2353 3.76471L54.5882 3.76471H52.2353L3.76471 3.76471L3.76471 12.7059V15.5294L3.7647 60.2353H10.3529H12.2353Z" fill="#222222"/>
</svg>
