<svg width="847" height="133" viewBox="0 0 847 133" fill="none" xmlns="http://www.w3.org/2000/svg">
<path d="M20.236 47.7664C23.1945 42.7944 27.0996 38.947 31.9515 36.2243C36.9218 33.3832 42.7796 31.9626 49.5249 31.9626V52.9159H44.3771C36.4484 52.9159 30.4131 54.9283 26.2713 58.9533C22.2477 62.9782 20.236 69.9626 20.236 79.9065V131.402H0V33.5608H20.236V47.7664Z" fill="#222222"/>
<path d="M156.703 33.5608V131.402H136.467V119.86C133.271 123.885 129.07 127.081 123.864 129.449C118.775 131.698 113.331 132.822 107.533 132.822C99.8407 132.822 92.9179 131.224 86.7642 128.028C80.7289 124.832 75.9362 120.097 72.386 113.822C68.9542 107.548 67.2383 99.972 67.2383 91.0935V33.5608H87.2968V88.0748C87.2968 96.8349 89.486 103.583 93.8646 108.318C98.2431 112.935 104.219 115.243 111.793 115.243C119.367 115.243 125.343 112.935 129.721 108.318C134.218 103.583 136.467 96.8349 136.467 88.0748V33.5608H156.703Z" fill="#222222"/>
<path d="M203.638 0V131.402H183.402V0H203.638Z" fill="#222222"/>
<path d="M319.848 80.0841C319.848 83.7539 319.612 87.0685 319.138 90.028H244.407C244.999 97.8411 247.898 104.115 253.105 108.85C258.312 113.586 264.702 115.953 272.276 115.953C283.163 115.953 290.855 111.396 295.352 102.28H317.186C314.227 111.277 308.843 118.676 301.032 124.477C293.34 130.159 283.755 133 272.276 133C262.927 133 254.525 130.928 247.07 126.785C239.733 122.523 233.934 116.604 229.674 109.028C225.532 101.333 223.461 92.4548 223.461 82.3925C223.461 72.3302 225.473 63.5109 229.496 55.9346C233.638 48.2399 239.378 42.3209 246.715 38.1776C254.17 34.0343 262.69 31.9626 272.276 31.9626C281.506 31.9626 289.731 33.9751 296.95 38C304.168 42.0249 309.789 47.7072 313.813 55.0467C317.836 62.2679 319.848 70.6137 319.848 80.0841ZM298.725 73.6916C298.606 66.2336 295.944 60.2555 290.737 55.757C285.53 51.2586 279.08 49.0093 271.388 49.0093C264.406 49.0093 258.43 51.2586 253.46 55.757C248.49 60.1371 245.531 66.1153 244.585 73.6916H298.725Z" fill="#222222"/>
<path d="M347.928 132.645C344.259 132.645 341.182 131.402 338.697 128.916C336.212 126.43 334.97 123.352 334.97 119.682C334.97 116.012 336.212 112.935 338.697 110.449C341.182 107.963 344.259 106.72 347.928 106.72C351.478 106.72 354.496 107.963 356.981 110.449C359.466 112.935 360.708 116.012 360.708 119.682C360.708 123.352 359.466 126.43 356.981 128.916C354.496 131.402 351.478 132.645 347.928 132.645Z" fill="#222222"/>
<path d="M406.188 50.0748V104.234C406.188 107.903 407.016 110.567 408.673 112.224C410.448 113.763 413.407 114.533 417.549 114.533H429.974V131.402H413.998C404.886 131.402 397.904 129.271 393.052 125.009C388.201 120.748 385.775 113.822 385.775 104.234V50.0748H374.237V33.5608H385.775V9.23364H406.188V33.5608H429.974V50.0748H406.188Z" fill="#222222"/>
<path d="M468.861 47.7664C471.82 42.7944 475.725 38.947 480.577 36.2243C485.547 33.3832 491.405 31.9626 498.15 31.9626V52.9159H493.002C485.074 52.9159 479.038 54.9283 474.896 58.9533C470.873 62.9782 468.861 69.9626 468.861 79.9065V131.402H448.625V33.5608H468.861V47.7664Z" fill="#222222"/>
<path d="M510.006 82.0374C510.006 72.2118 512.017 63.5109 516.041 55.9346C520.183 48.3583 525.745 42.4984 532.727 38.3551C539.827 34.0935 547.637 31.9626 556.158 31.9626C563.85 31.9626 570.536 33.5016 576.216 36.5794C582.015 39.5389 586.63 43.2679 590.062 47.7664V33.5608H610.475V131.402H590.062V116.841C586.63 121.458 581.956 125.305 576.039 128.383C570.122 131.461 563.377 133 555.803 133C547.401 133 539.709 130.869 532.727 126.607C525.745 122.227 520.183 116.19 516.041 108.495C512.017 100.682 510.006 91.8629 510.006 82.0374ZM590.062 82.3925C590.062 75.6449 588.642 69.785 585.802 64.8131C583.08 59.8411 579.471 56.053 574.974 53.4486C570.477 50.8442 565.625 49.542 560.418 49.542C555.211 49.542 550.359 50.8442 545.862 53.4486C541.365 55.9346 537.697 59.6636 534.857 64.6355C532.135 69.4891 530.774 75.2897 530.774 82.0374C530.774 88.785 532.135 94.704 534.857 99.7944C537.697 104.885 541.365 108.791 545.862 111.514C550.478 114.118 555.329 115.421 560.418 115.421C565.625 115.421 570.477 114.118 574.974 111.514C579.471 108.91 583.08 105.121 585.802 100.15C588.642 95.0592 590.062 89.1402 590.062 82.3925Z" fill="#222222"/>
<path d="M630.309 82.0374C630.309 72.2118 632.321 63.5109 636.345 55.9346C640.486 48.3583 646.048 42.4984 653.03 38.3551C660.131 34.0935 668 31.9626 676.639 31.9626C683.029 31.9626 689.301 33.3832 695.455 36.2243C701.727 38.947 706.697 42.6168 710.366 47.2336V0H730.779V131.402H710.366V116.664C707.052 121.399 702.437 125.305 696.52 128.383C690.721 131.461 684.035 133 676.461 133C667.941 133 660.131 130.869 653.03 126.607C646.048 122.227 640.486 116.19 636.345 108.495C632.321 100.682 630.309 91.8629 630.309 82.0374ZM710.366 82.3925C710.366 75.6449 708.946 69.785 706.105 64.8131C703.384 59.8411 699.774 56.053 695.277 53.4486C690.78 50.8442 685.929 49.542 680.722 49.542C675.515 49.542 670.663 50.8442 666.166 53.4486C661.669 55.9346 658.001 59.6636 655.16 64.6355C652.439 69.4891 651.078 75.2897 651.078 82.0374C651.078 88.785 652.439 94.704 655.16 99.7944C658.001 104.885 661.669 108.791 666.166 111.514C670.781 114.118 675.633 115.421 680.722 115.421C685.929 115.421 690.78 114.118 695.277 111.514C699.774 108.91 703.384 105.121 706.105 100.15C708.946 95.0592 710.366 89.1402 710.366 82.3925Z" fill="#222222"/>
<path d="M847 80.0841C847 83.7539 846.763 87.0685 846.29 90.028H771.559C772.151 97.8411 775.05 104.115 780.257 108.85C785.464 113.586 791.854 115.953 799.428 115.953C810.315 115.953 818.007 111.396 822.504 102.28H844.337C841.379 111.277 835.995 118.676 828.184 124.477C820.492 130.159 810.907 133 799.428 133C790.079 133 781.677 130.928 774.221 126.785C766.885 122.523 761.086 116.604 756.826 109.028C752.684 101.333 750.613 92.4548 750.613 82.3925C750.613 72.3302 752.625 63.5109 756.648 55.9346C760.79 48.2399 766.53 42.3209 773.867 38.1776C781.322 34.0343 789.842 31.9626 799.428 31.9626C808.658 31.9626 816.883 33.9751 824.101 38C831.32 42.0249 836.941 47.7072 840.965 55.0467C844.988 62.2679 847 70.6137 847 80.0841ZM825.876 73.6916C825.758 66.2336 823.096 60.2555 817.889 55.757C812.682 51.2586 806.232 49.0093 798.54 49.0093C791.558 49.0093 785.582 51.2586 780.612 55.757C775.642 60.1371 772.683 66.1153 771.736 73.6916H825.876Z" fill="#222222"/>
</svg>
